<svg width="100" height="101" viewBox="0 0 100 101" fill="none" xmlns="http://www.w3.org/2000/svg">
<g clip-path="url(#clip0_26_199)">
<path d="M1.78196 62.3114L0 63.7497L25.9405 66.881C29.7087 68.3368 33.639 69.3767 37.6915 70.0123C39.053 57.2093 53.0704 47.1119 70.1231 47.1119C77.0327 47.1119 83.4398 48.7737 88.7156 51.5979C92.0132 46.7718 93.8853 41.3003 93.8853 35.5004C93.8853 16.0598 72.9462 0.242188 47.2079 0.242188C21.4696 0.242188 0.526579 16.0598 0.526579 35.5004C0.526579 42.4801 3.22355 49.2014 8.33317 55.0013L8.29112 55.0324L8.78967 55.5455C8.21504 56.6767 4.83732 59.843 1.78196 62.3114ZM16.1277 19.8558H76.9767V23.0648H16.1277V19.8558ZM16.1277 31.7569H76.9767V34.9659H16.1277V31.7569ZM16.1277 43.6599H48.3432V46.8689H16.1277V43.6599Z" fill="#3D50FF"/>
<path d="M40.2442 72.0588C40.2442 84.3855 53.651 94.4129 70.1231 94.4129C73.7651 94.4129 77.3471 93.9134 80.7688 92.9338L81.4956 92.7258L89.8728 100.242V88.8035L90.4295 88.4148C96.5101 84.1853 99.998 78.2221 99.998 72.0588C99.998 59.7339 86.5912 49.7046 70.1211 49.7046C53.651 49.7046 40.2422 59.7339 40.2422 72.0588H40.2442Z" fill="white"/>
<path d="M76.9787 19.856H16.1277V23.065H76.9787V19.856Z" fill="#82BFAB"/>
<path d="M76.9787 31.7588H16.1277V34.9678H76.9787V31.7588Z" fill="#82BFAB"/>
<path d="M48.3452 43.6621H16.1277V46.8711H48.3452V43.6621Z" fill="#82BFAB"/>
</g>
<defs>
<clipPath id="clip0_26_199">
<rect width="100" height="100" fill="white" transform="translate(0 0.242188)"/>
</clipPath>
</defs>
</svg>
