<svg width="41" height="41" viewBox="0 0 41 41" fill="none" xmlns="http://www.w3.org/2000/svg">
<g clip-path="url(#clip0_264_4221)">
<path d="M31.3906 0H9.60938C4.30226 0 0 4.30226 0 9.60938V31.3906C0 36.6977 4.30226 41 9.60938 41H31.3906C36.6977 41 41 36.6977 41 31.3906V9.60938C41 4.30226 36.6977 0 31.3906 0Z" fill="url(#paint0_radial_264_4221)"/>
<path d="M31.3906 0H9.60938C4.30226 0 0 4.30226 0 9.60938V31.3906C0 36.6977 4.30226 41 9.60938 41H31.3906C36.6977 41 41 36.6977 41 31.3906V9.60938C41 4.30226 36.6977 0 31.3906 0Z" fill="url(#paint1_radial_264_4221)"/>
<path d="M20.5014 4.48438C16.1519 4.48438 15.6059 4.50343 13.8977 4.58111C12.1927 4.65927 11.0288 4.92913 10.0106 5.3252C8.95706 5.73423 8.06355 6.28149 7.1734 7.17196C6.28245 8.06227 5.7352 8.95578 5.32488 10.0088C4.92769 11.0274 4.6575 12.1917 4.58079 13.896C4.50439 15.6043 4.48438 16.1505 4.48438 20.5002C4.48438 24.8498 4.50359 25.3941 4.58111 27.1023C4.65959 28.8073 4.92945 29.9712 5.3252 30.9894C5.73455 32.0429 6.28181 32.9365 7.17228 33.8266C8.06227 34.7176 8.95578 35.2661 10.0085 35.6751C11.0276 36.0712 12.1916 36.3411 13.8963 36.4192C15.6047 36.4969 16.1502 36.5159 20.4995 36.5159C24.8495 36.5159 25.3937 36.4969 27.102 36.4192C28.807 36.3411 29.9721 36.0712 30.9912 35.6751C32.0442 35.2661 32.9365 34.7176 33.8263 33.8266C34.7172 32.9365 35.2643 32.0429 35.6748 30.9899C36.0685 29.9712 36.3388 28.807 36.4189 27.1026C36.4956 25.3944 36.5156 24.8498 36.5156 20.5002C36.5156 16.1505 36.4956 15.6047 36.4189 13.8963C36.3388 12.1913 36.0685 11.0276 35.6748 10.0093C35.2643 8.95578 34.7172 8.06227 33.8263 7.17196C32.9355 6.28117 32.0445 5.73391 30.9902 5.32536C29.9692 4.92913 28.8047 4.65911 27.0997 4.58111C25.3913 4.50343 24.8474 4.48438 20.4965 4.48438H20.5014ZM19.0647 7.37055C19.4912 7.36991 19.967 7.37055 20.5014 7.37055C24.7778 7.37055 25.2845 7.38593 26.9732 7.46264C28.5347 7.53407 29.3823 7.79497 29.9468 8.01422C30.6943 8.30442 31.2271 8.65148 31.7873 9.21219C32.3479 9.77273 32.6948 10.3065 32.9858 11.054C33.205 11.6177 33.4663 12.4653 33.5374 14.0268C33.6141 15.7152 33.6307 16.2222 33.6307 20.4965C33.6307 24.7707 33.6141 25.2779 33.5374 26.9661C33.4659 28.5277 33.205 29.3752 32.9858 29.9391C32.6956 30.6866 32.3479 31.2188 31.7873 31.779C31.2268 32.3396 30.6946 32.6865 29.9468 32.9768C29.3829 33.197 28.5347 33.4573 26.9732 33.5287C25.2848 33.6054 24.7778 33.6221 20.5014 33.6221C16.2249 33.6221 15.7181 33.6054 14.0298 33.5287C12.4683 33.4566 11.6208 33.1957 11.0557 32.9765C10.3085 32.6861 9.7745 32.3392 9.21395 31.7787C8.6534 31.2181 8.3065 30.6856 8.0155 29.9378C7.79625 29.3739 7.53503 28.5264 7.46392 26.9649C7.38721 25.2765 7.37183 24.7694 7.37183 20.4925C7.37183 16.2157 7.38721 15.7112 7.46392 14.0228C7.53535 12.4613 7.79625 11.6137 8.0155 11.0492C8.30586 10.3017 8.6534 9.76793 9.21411 9.20738C9.77466 8.64684 10.3085 8.29978 11.0559 8.00893C11.6205 7.78872 12.4683 7.52846 14.0298 7.45671C15.5073 7.38993 16.0798 7.36991 19.0647 7.36655V7.37055ZM29.0506 10.0298C27.9895 10.0298 27.1287 10.8898 27.1287 11.951C27.1287 13.0121 27.9895 13.8729 29.0506 13.8729C30.1116 13.8729 30.9725 13.0121 30.9725 11.951C30.9725 10.89 30.1116 10.0291 29.0506 10.0291V10.0298ZM20.5014 12.2753C15.9594 12.2753 12.2768 15.958 12.2768 20.5002C12.2768 25.0424 15.9594 28.7232 20.5014 28.7232C25.0436 28.7232 28.725 25.0424 28.725 20.5002C28.725 15.9581 25.0433 12.2753 20.5011 12.2753H20.5014ZM20.5014 15.1615C23.4498 15.1615 25.8401 17.5515 25.8401 20.5002C25.8401 23.4485 23.4498 25.8388 20.5014 25.8388C17.553 25.8388 15.163 23.4485 15.163 20.5002C15.163 17.5515 17.553 15.1615 20.5014 15.1615Z" fill="white"/>
</g>
<defs>
<radialGradient id="paint0_radial_264_4221" cx="0" cy="0" r="1" gradientUnits="userSpaceOnUse" gradientTransform="translate(10.8906 44.1578) rotate(-90) scale(40.634 37.7929)">
<stop stop-color="#FFDD55"/>
<stop offset="0.1" stop-color="#FFDD55"/>
<stop offset="0.5" stop-color="#FF543E"/>
<stop offset="1" stop-color="#C837AB"/>
</radialGradient>
<radialGradient id="paint1_radial_264_4221" cx="0" cy="0" r="1" gradientUnits="userSpaceOnUse" gradientTransform="translate(-6.86766 2.95344) rotate(78.681) scale(18.1636 74.8711)">
<stop stop-color="#3771C8"/>
<stop offset="0.128" stop-color="#3771C8"/>
<stop offset="1" stop-color="#6600FF" stop-opacity="0"/>
</radialGradient>
<clipPath id="clip0_264_4221">
<rect width="41" height="41" fill="white"/>
</clipPath>
</defs>
</svg>
