<svg width="28" height="29" viewBox="0 0 28 29" fill="none" xmlns="http://www.w3.org/2000/svg">
<g clip-path="url(#clip0_264_4286)">
<path d="M14 0.291016C10.2878 0.291016 6.72437 1.76692 4.10156 4.39148C1.47604 7.01709 0.000727278 10.5779 0 14.291C0 18.0025 1.47656 21.566 4.10156 24.1905C6.72437 26.8151 10.2878 28.291 14 28.291C17.7122 28.291 21.2756 26.8151 23.8984 24.1905C26.5234 21.566 28 18.0025 28 14.291C28 10.5795 26.5234 7.01605 23.8984 4.39148C21.2756 1.76692 17.7122 0.291016 14 0.291016Z" fill="url(#paint0_linear_264_4286)"/>
<path d="M6.33723 14.1432C10.4191 12.3652 13.1404 11.1929 14.501 10.6266C18.3904 9.00935 19.1975 8.72847 19.7247 8.71895C19.8407 8.7171 20.0988 8.74575 20.2672 8.88192C20.4072 8.99677 20.4466 9.15208 20.4663 9.26113C20.4838 9.37006 20.5079 9.61835 20.4882 9.81216C20.2782 12.0259 19.366 17.398 18.9022 19.8775C18.7075 20.9266 18.3204 21.2784 17.9463 21.3127C17.1325 21.3875 16.5157 20.7755 15.7282 20.2594C14.4966 19.4516 13.801 18.9489 12.6044 18.1608C11.2219 17.2499 12.1188 16.7492 12.9063 15.931C13.1119 15.7169 16.695 12.4586 16.7629 12.1631C16.7716 12.1261 16.7804 11.9883 16.6972 11.9157C16.6163 11.8428 16.496 11.8678 16.4085 11.8874C16.2838 11.9154 14.3172 13.2166 10.5022 15.7906C9.94442 16.1743 9.43911 16.3613 8.98411 16.3515C8.48536 16.3408 7.52286 16.0688 6.80755 15.8365C5.93255 15.5515 5.23473 15.4008 5.29598 14.9167C5.32661 14.6647 5.67442 14.4068 6.33723 14.1432Z" fill="white"/>
</g>
<defs>
<linearGradient id="paint0_linear_264_4286" x1="1400" y1="0.291016" x2="1400" y2="2800.29" gradientUnits="userSpaceOnUse">
<stop offset="1" stop-color="#229ED9"/>
</linearGradient>
<clipPath id="clip0_264_4286">
<rect width="28" height="28" fill="white" transform="translate(0 0.291016)"/>
</clipPath>
</defs>
</svg>
