<svg width="60" height="61" viewBox="0 0 60 61" fill="none" xmlns="http://www.w3.org/2000/svg">
<path d="M30 3.99219C24.5318 3.99839 19.2894 6.17337 15.4228 10.04C11.5562 13.9066 9.3812 19.149 9.375 24.6172C9.375 42.2656 28.125 55.5945 28.9242 56.1523C29.2395 56.3732 29.6151 56.4917 30 56.4917C30.3849 56.4917 30.7605 56.3732 31.0758 56.1523C31.875 55.5945 50.625 42.2656 50.625 24.6172C50.6188 19.149 48.4438 13.9066 44.5772 10.04C40.7106 6.17337 35.4682 3.99839 30 3.99219ZM30 17.1172C31.4834 17.1172 32.9334 17.5571 34.1668 18.3812C35.4001 19.2053 36.3614 20.3766 36.9291 21.7471C37.4968 23.1175 37.6453 24.6255 37.3559 26.0804C37.0665 27.5352 36.3522 28.8716 35.3033 29.9205C34.2544 30.9694 32.918 31.6837 31.4632 31.9731C30.0083 32.2625 28.5003 32.1139 27.1299 31.5463C25.7594 30.9786 24.5881 30.0173 23.764 28.784C22.9399 27.5506 22.5 26.1005 22.5 24.6172C22.5 22.6281 23.2902 20.7204 24.6967 19.3139C26.1032 17.9074 28.0109 17.1172 30 17.1172Z" fill="#FF4949"/>
</svg>
