<svg width="133" height="101" viewBox="0 0 133 101" fill="none" xmlns="http://www.w3.org/2000/svg">
<rect width="44.9821" height="69.3609" transform="matrix(0.864569 -0.502515 0.864569 0.502515 11.2693 63.7227)" fill="#D9D9D9"/>
<path d="M11.2693 34.9072L50.1594 12.303L110.127 47.1579L71.2142 69.7348L11.2693 34.9072Z" fill="#00AEBB"/>
<path d="M28.5507 24.8628L32.8781 22.3475L92.8454 57.2024L88.4846 59.6967L28.5507 24.8628Z" fill="black"/>
<path d="M11.2693 63.6928V34.9082L71.2142 69.7348L71.2801 98.6167L11.2693 63.6928Z" fill="#00848E"/>
<path d="M71.28 98.6166L71.2141 69.7347L110.122 47.1604V75.9759L71.28 98.6166Z" fill="#00BFCD"/>
<path d="M88.5564 88.5331L88.4876 59.7123L92.826 57.1985V86.0357L88.5564 88.5331Z" fill="black"/>
<path d="M17.9583 44.028L21.6456 46.1714C22.8898 46.8947 23.8231 47.8252 24.4452 48.9631C25.0673 50.1009 25.3784 51.4196 25.3784 52.9191V54.7449C25.3784 56.2444 25.0673 57.2014 24.4452 57.616C23.8231 58.0305 22.8898 57.8762 21.6456 57.1529L20.462 56.4649V64.0064L17.9583 62.551V44.028ZM21.6456 54.5067C22.0553 54.7449 22.3587 54.789 22.556 54.639C22.7685 54.4979 22.8747 54.1098 22.8747 53.4747V51.2785C22.8747 50.6434 22.7685 50.1318 22.556 49.7437C22.3587 49.3644 22.0553 49.0557 21.6456 48.8175L20.462 48.1296V53.8187L21.6456 54.5067Z" fill="black"/>
<path d="M30.1296 69.8906C28.9005 69.1762 27.9597 68.2235 27.3072 67.0328C26.6547 65.842 26.3285 64.5057 26.3285 63.0239V53.2861C26.3285 51.8043 26.6547 50.8473 27.3072 50.415C27.9597 49.9828 28.9005 50.124 30.1296 50.8384C31.3587 51.5529 32.2995 52.5055 32.952 53.6963C33.6045 54.887 33.9307 56.2233 33.9307 57.7052V67.4429C33.9307 68.9248 33.6045 69.8818 32.952 70.314C32.2995 70.7462 31.3587 70.6051 30.1296 69.8906ZM30.1296 67.2445C30.9945 67.7472 31.427 67.39 31.427 66.1728V56.0646C31.427 54.8473 30.9945 53.9873 30.1296 53.4846C29.2647 52.9818 28.8322 53.339 28.8322 54.5563V64.6645C28.8322 65.8817 29.2647 66.7417 30.1296 67.2445Z" fill="black"/>
<path d="M35.3963 54.1645L37.9001 55.6199V74.1428L35.3963 72.6875V54.1645Z" fill="black"/>
<path d="M39.0469 72.2162L43.6901 61.6317L39.2745 59.0649V56.4188L46.376 60.5468V63.14L41.7327 73.7245L46.376 76.4236V79.0697L39.0469 74.8094V72.2162Z" fill="black"/>
<path d="M51.1855 82.13C49.9564 81.4156 49.0156 80.463 48.3631 79.2722C47.7106 78.0814 47.3844 76.7451 47.3844 75.2633V65.5255C47.3844 64.0437 47.7106 63.0867 48.3631 62.6545C49.0156 62.2223 49.9564 62.3634 51.1855 63.0778C52.4146 63.7923 53.3554 64.7449 54.0079 65.9357C54.6604 67.1264 54.9866 68.4627 54.9866 69.9446V79.6824C54.9866 81.1642 54.6604 82.1212 54.0079 82.5534C53.3554 82.9856 52.4146 82.8445 51.1855 82.13ZM51.1855 79.4839C52.0504 79.9867 52.4829 79.6294 52.4829 78.4122V68.304C52.4829 67.0867 52.0504 66.2267 51.1855 65.724C50.3206 65.2212 49.8881 65.5784 49.8881 66.7957V76.9039C49.8881 78.1211 50.3206 78.9811 51.1855 79.4839Z" fill="black"/>
<path d="M56.4522 66.4039L59.5933 68.2297L62.0287 80.7327L62.0742 80.7592V69.6719L64.3048 70.9685V89.4915L61.7328 87.9964L58.7283 72.7282L58.6828 72.7017V86.2235L56.4522 84.9269V66.4039Z" fill="black"/>
<g clip-path="url(#clip0_26_44)">
<mask id="mask0_26_44" style="mask-type:alpha" maskUnits="userSpaceOnUse" x="-12" y="-5" width="155" height="119">
<path d="M39.3546 61.8259L55.0504 70.8892L55.0504 76.118L24.4668 113.998L-4.03941 98.5438L-3.57783 97.498L-3.57783 96.4522L-4.03941 95.6389L-4.73187 94.8255L-11.0793 90.991L39.3546 61.8259Z" fill="#D9D9D9"/>
<path d="M127.297 -4.17334L142.993 4.88993L142.993 10.1187L112.409 47.9985L83.9028 32.5445L84.3644 31.4987L84.3644 30.453L83.9028 29.6397L83.2103 28.8262L76.8629 24.9917L127.297 -4.17334Z" fill="#D9D9D9"/>
</mask>
<g mask="url(#mask0_26_44)">
<path fill-rule="evenodd" clip-rule="evenodd" d="M103.02 9.9807C103.428 9.79268 103.835 9.61637 104.245 9.45938L104.245 9.48074C104.441 13.0288 104.57 16.6312 104.441 20.3999C104.55 18.5013 104.802 16.7507 105.052 15.0205C105.339 13.0392 105.621 11.0847 105.678 8.96537C106.601 8.67191 107.516 8.43693 108.429 8.26808C108.422 8.66001 108.413 9.05043 108.404 9.44088C108.367 11.0372 108.331 12.634 108.442 14.3371C108.656 13.434 108.932 12.5736 109.212 11.7007C109.588 10.5322 109.97 9.34123 110.22 7.99542C111.413 7.86162 112.566 7.80659 113.675 7.81303C113.638 9.18374 113.465 10.4377 113.001 11.3947C115.257 11.6416 115.826 10.0562 115.944 7.90027C120.35 8.23576 123.485 9.34834 123.485 9.34834L97.9131 25.8522L96.0038 15.1122C96.4682 14.6293 96.9581 14.1515 97.4657 13.6945C97.7788 15.3568 98.0166 16.9706 97.8883 18.2602C97.7901 18.7331 97.6888 19.208 97.5426 19.6472C97.7323 19.2554 97.8368 18.7785 97.8883 18.2602C98.2172 16.6795 98.2992 14.9131 98.2383 13.0128C99.024 12.3656 99.8609 11.75 100.754 11.1951C100.871 11.1197 100.99 11.0569 101.109 10.9942C101.198 10.9471 101.288 10.9001 101.376 10.8477C101.385 11.4503 101.393 12.0544 101.401 12.6587C101.435 15.2853 101.469 17.9176 101.635 20.4654C101.764 18.1973 102.096 16.1412 102.425 14.1077C102.646 12.741 102.865 11.3844 103.02 9.9807ZM97.0939 26.3701L86.9318 32.9286C86.8896 31.7058 88.8098 22.4168 95.1846 15.6301L97.0939 26.3701ZM7.74148 88.3579L10.4485 78.9599L13.9283 82.0913C14.7158 81.4877 16.2607 80.3906 17.8983 79.2277C20.5198 77.366 23.3789 75.3356 23.7486 74.8913L26.5788 79.3365C26.0234 79.4892 22.9973 81.2571 20.2225 82.8781L20.2225 82.8781C18.4891 83.8907 16.8539 84.8459 15.9804 85.3144L17.3536 89.8054L7.74148 88.3579ZM26.6009 78.751L24.2959 75.1308L115.051 16.5587C115.463 16.2929 124.798 11.4105 125.435 12.411C126.072 13.4116 117.768 19.9132 117.356 20.179L26.6009 78.751ZM90.6729 38.8117C91.7572 39.3511 100.944 41.4825 109.731 38.4841L100.835 32.2531L90.6729 38.8117ZM101.656 31.7235L110.552 37.9545C111.047 37.7854 111.536 37.5991 112.03 37.399C111.038 36.3907 110.099 35.822 109.514 36.1995C110.303 35.6901 111.594 36.2686 112.974 36.9728C113.441 36.7579 113.907 36.5217 114.363 36.2702C113.384 35.6844 112.369 34.961 111.36 34.2418L111.36 34.2418C109.612 32.9954 107.882 31.7619 106.382 31.2808C107.95 31.5961 109.672 32.3183 111.416 33.0495C113.169 33.7847 114.943 34.5289 116.604 34.8778C117.186 34.4596 117.735 34.019 118.257 33.5637C117.236 33.0583 116.292 32.7543 115.349 32.4504C113.551 31.8711 111.753 31.2921 109.423 29.3185C113.207 31.3808 116.406 32.5168 119.348 32.5254C120.305 31.5626 121.146 30.5351 121.883 29.4773C120.552 28.7737 119.251 28.213 117.954 27.7241C118.506 27.8134 119.044 27.873 119.582 27.9326L119.582 27.9326C120.555 28.0405 121.53 28.1485 122.584 28.4322C122.854 27.9993 123.115 27.5725 123.353 27.1385C122.508 26.4876 121.731 25.998 120.995 25.6646C121.251 25.6722 121.505 25.6804 121.759 25.6885C122.523 25.7131 123.286 25.7377 124.076 25.7451C124.416 25.0519 124.722 24.3693 124.992 23.6994C124.619 23.5954 124.257 23.5217 123.896 23.448C122.869 23.2387 121.843 23.0297 120.552 22.1253C121.658 21.4115 123.114 21.4613 124.552 21.5105C124.97 21.5248 125.386 21.539 125.792 21.5345C126.975 17.9368 127.228 15.2197 127.228 15.2197L101.656 31.7235ZM117.794 25.6399C118.922 25.6128 119.965 25.6288 120.995 25.6646C119.798 25.1224 118.731 25.0352 117.794 25.6399ZM117.954 27.7241C116.745 27.5242 115.468 27.1843 113.974 26.3705L114.257 26.462C115.486 26.8589 116.712 27.2548 117.954 27.7241Z" fill="white"/>
</g>
</g>
<defs>
<clipPath id="clip0_26_44">
<rect width="140.074" height="28.503" fill="white" transform="matrix(0.840211 -0.542259 0.537067 0.84354 0 76.1987)"/>
</clipPath>
</defs>
</svg>
